<mxfile host="app.diagrams.net" modified="2024-07-12T12:28:30.938Z" agent="Mozilla/5.0 (Macintosh; Intel Mac OS X 10_15_7) AppleWebKit/537.36 (KHTML, like Gecko) Chrome/126.0.0.0 Safari/537.36" etag="gnUpFwVNyBo9MYvJdkz9" version="24.6.4" type="device">
  <diagram name="Page-1" id="4FZpsoDMForgQTQNO5x2">
    <mxGraphModel dx="725" dy="725" grid="1" gridSize="10" guides="1" tooltips="1" connect="1" arrows="1" fold="1" page="1" pageScale="1" pageWidth="850" pageHeight="1100" math="1" shadow="0">
      <root>
        <mxCell id="0" />
        <mxCell id="1" parent="0" />
        <mxCell id="-UWHzBnL6sN8G6sBxdCK-6" style="edgeStyle=orthogonalEdgeStyle;rounded=0;orthogonalLoop=1;jettySize=auto;html=1;strokeWidth=3;entryX=0;entryY=0.5;entryDx=0;entryDy=0;" parent="1" source="-UWHzBnL6sN8G6sBxdCK-1" target="-UWHzBnL6sN8G6sBxdCK-7" edge="1">
          <mxGeometry relative="1" as="geometry">
            <mxPoint x="350" y="220" as="targetPoint" />
          </mxGeometry>
        </mxCell>
        <mxCell id="-UWHzBnL6sN8G6sBxdCK-1" value="&lt;b&gt;&lt;font style=&quot;font-size: 25px;&quot;&gt;\(f^e(h^t_i; \psi_i^e)\)&lt;/font&gt;&lt;/b&gt;" style="rounded=1;whiteSpace=wrap;html=1;fillColor=#ffe6cc;strokeColor=#d79b00;strokeWidth=5;" parent="1" vertex="1">
          <mxGeometry x="140" y="190" width="160" height="60" as="geometry" />
        </mxCell>
        <mxCell id="-UWHzBnL6sN8G6sBxdCK-13" style="edgeStyle=orthogonalEdgeStyle;rounded=0;orthogonalLoop=1;jettySize=auto;html=1;entryX=0;entryY=0.5;entryDx=0;entryDy=0;strokeWidth=3;" parent="1" source="-UWHzBnL6sN8G6sBxdCK-3" target="-UWHzBnL6sN8G6sBxdCK-12" edge="1">
          <mxGeometry relative="1" as="geometry" />
        </mxCell>
        <mxCell id="-UWHzBnL6sN8G6sBxdCK-3" value="&lt;span style=&quot;font-size: 25px;&quot;&gt;&lt;b&gt;\(f^d(m^t_i; \psi^d_i)\)&lt;/b&gt;&lt;/span&gt;" style="rounded=1;whiteSpace=wrap;html=1;fillColor=#dae8fc;strokeColor=#6c8ebf;strokeWidth=5;" parent="1" vertex="1">
          <mxGeometry x="450" y="190" width="160" height="60" as="geometry" />
        </mxCell>
        <mxCell id="-UWHzBnL6sN8G6sBxdCK-5" style="edgeStyle=orthogonalEdgeStyle;rounded=0;orthogonalLoop=1;jettySize=auto;html=1;entryX=0;entryY=0.5;entryDx=0;entryDy=0;strokeWidth=3;" parent="1" source="-UWHzBnL6sN8G6sBxdCK-4" target="-UWHzBnL6sN8G6sBxdCK-1" edge="1">
          <mxGeometry relative="1" as="geometry" />
        </mxCell>
        <mxCell id="-UWHzBnL6sN8G6sBxdCK-17" style="edgeStyle=orthogonalEdgeStyle;rounded=0;orthogonalLoop=1;jettySize=auto;html=1;entryX=0;entryY=0.5;entryDx=0;entryDy=0;exitX=0.5;exitY=0;exitDx=0;exitDy=0;strokeWidth=3;" parent="1" source="-UWHzBnL6sN8G6sBxdCK-4" target="-UWHzBnL6sN8G6sBxdCK-15" edge="1">
          <mxGeometry relative="1" as="geometry">
            <Array as="points">
              <mxPoint x="65" y="90" />
            </Array>
          </mxGeometry>
        </mxCell>
        <mxCell id="-UWHzBnL6sN8G6sBxdCK-4" value="&lt;font style=&quot;font-size: 25px;&quot;&gt;\(h_i^t\)&lt;/font&gt;" style="text;html=1;strokeColor=none;fillColor=none;align=center;verticalAlign=middle;whiteSpace=wrap;rounded=0;fontSize=25;" parent="1" vertex="1">
          <mxGeometry x="40" y="197.5" width="50" height="45" as="geometry" />
        </mxCell>
        <mxCell id="-UWHzBnL6sN8G6sBxdCK-10" style="edgeStyle=orthogonalEdgeStyle;rounded=0;orthogonalLoop=1;jettySize=auto;html=1;entryX=0;entryY=0.5;entryDx=0;entryDy=0;strokeWidth=3;" parent="1" source="-UWHzBnL6sN8G6sBxdCK-7" target="-UWHzBnL6sN8G6sBxdCK-3" edge="1">
          <mxGeometry relative="1" as="geometry" />
        </mxCell>
        <mxCell id="-UWHzBnL6sN8G6sBxdCK-16" style="edgeStyle=orthogonalEdgeStyle;rounded=0;orthogonalLoop=1;jettySize=auto;html=1;entryX=0;entryY=0.5;entryDx=0;entryDy=0;strokeWidth=3;exitX=0.5;exitY=0;exitDx=0;exitDy=0;" parent="1" source="-UWHzBnL6sN8G6sBxdCK-7" target="-UWHzBnL6sN8G6sBxdCK-15" edge="1">
          <mxGeometry relative="1" as="geometry">
            <Array as="points">
              <mxPoint x="375" y="90" />
            </Array>
          </mxGeometry>
        </mxCell>
        <mxCell id="-UWHzBnL6sN8G6sBxdCK-7" value="&lt;font style=&quot;font-size: 25px;&quot;&gt;\(m_i^t\)&lt;/font&gt;" style="text;html=1;strokeColor=none;fillColor=none;align=center;verticalAlign=middle;whiteSpace=wrap;rounded=0;fontSize=25;" parent="1" vertex="1">
          <mxGeometry x="350" y="196.25" width="50" height="47.5" as="geometry" />
        </mxCell>
        <mxCell id="-UWHzBnL6sN8G6sBxdCK-12" value="???" style="text;html=1;strokeColor=#b85450;fillColor=#f8cecc;align=center;verticalAlign=middle;whiteSpace=wrap;rounded=1;fontSize=25;strokeWidth=5;" parent="1" vertex="1">
          <mxGeometry x="660" y="190" width="70" height="60" as="geometry" />
        </mxCell>
        <mxCell id="-UWHzBnL6sN8G6sBxdCK-18" style="edgeStyle=orthogonalEdgeStyle;rounded=0;orthogonalLoop=1;jettySize=auto;html=1;strokeWidth=3;entryX=0;entryY=0.5;entryDx=0;entryDy=0;" parent="1" source="-UWHzBnL6sN8G6sBxdCK-15" target="-UWHzBnL6sN8G6sBxdCK-19" edge="1">
          <mxGeometry relative="1" as="geometry">
            <mxPoint x="650" y="90" as="targetPoint" />
          </mxGeometry>
        </mxCell>
        <mxCell id="-UWHzBnL6sN8G6sBxdCK-15" value="&lt;b&gt;&lt;font style=&quot;font-size: 25px;&quot;&gt;\(\pi(\cdot \mid h^t_i, m^t_i; \phi_i)\)&lt;/font&gt;&lt;/b&gt;" style="rounded=1;whiteSpace=wrap;html=1;fillColor=#d5e8d4;strokeColor=#82b366;strokeWidth=5;" parent="1" vertex="1">
          <mxGeometry x="413" y="60" width="215" height="60" as="geometry" />
        </mxCell>
        <mxCell id="-UWHzBnL6sN8G6sBxdCK-19" value="&lt;font style=&quot;font-size: 25px;&quot;&gt;\(a_i^t\)&lt;/font&gt;" style="text;html=1;strokeColor=none;fillColor=none;align=center;verticalAlign=middle;whiteSpace=wrap;rounded=0;fontSize=25;" parent="1" vertex="1">
          <mxGeometry x="670" y="68.75" width="49" height="42.5" as="geometry" />
        </mxCell>
      </root>
    </mxGraphModel>
  </diagram>
</mxfile>
